<?xml version="1.0" encoding="UTF-8" standalone="no"?>

<svg
   xmlns:dc="http://purl.org/dc/elements/1.1/"
   xmlns:cc="http://creativecommons.org/ns#"
   xmlns:rdf="http://www.w3.org/1999/02/22-rdf-syntax-ns#"
   xmlns:svg="http://www.w3.org/2000/svg"
   xmlns="http://www.w3.org/2000/svg"
   xmlns:xlink="http://www.w3.org/1999/xlink"
   version="1.1"
   width="138"
   height="138"
   viewBox="0 0 138 138"
   id="Layer_1"
   xml:space="preserve"><metadata
     id="metadata24"><rdf:RDF><cc:Work
         rdf:about=""><dc:format>image/svg+xml</dc:format><dc:type
           rdf:resource="http://purl.org/dc/dcmitype/StillImage" /><dc:title></dc:title></cc:Work></rdf:RDF></metadata><defs
     id="defs22"><defs
       id="defs12"><path
         d="m 64.876,0.353 c -35.654,0 -64.527,28.935 -64.527,64.644 0,35.724 28.873,64.649 64.527,64.649 35.903,0 64.774,-28.926 64.774,-64.649 0,-35.709 -28.871,-64.644 -64.774,-64.644 z M 11.027,73.354 c 8.071,-1.242 13.522,-0.639 19.207,-0.445 0.305,0.792 0.638,1.554 1.012,2.296 -5.561,0.2 -11.218,0.021 -19.483,1.94 -0.278,-1.256 -0.528,-2.508 -0.736,-3.791 z m 40.674,22.574 c -2.579,1.264 -10.789,4.327 -15.739,-4.145 0,0 -2.774,-5.042 -8.043,-5.417 0,0 -5.132,-0.062 -0.361,3.196 0,0 3.439,1.608 5.824,7.676 0,0 3.121,10.353 17.987,6.976 l 0.041,10.706 c 0,0 -0.111,1.357 -0.957,2.732 -19.096,-5.243 -34.003,-20.637 -38.58,-40.051 8.362,-1.947 14.104,-1.746 19.623,-1.941 3.855,7.136 11.399,11.719 24.823,13.111 -1.914,1.297 -3.841,3.481 -4.618,7.157 z m -1.289,2.427 c 0,0.401 -0.458,0.713 -1.012,0.721 -0.57,0 -1.026,-0.311 -1.026,-0.707 0,-0.389 0.457,-0.715 1.012,-0.715 0.568,-0.006 1.026,0.319 1.026,0.701 z m -3.342,0.577 c 0.013,0.381 -0.445,0.705 -1.012,0.705 -0.569,0 -1.026,-0.318 -1.026,-0.705 0,-0.396 0.457,-0.715 1.026,-0.715 0.553,0 1.012,0.31 1.012,0.715 z m -3.287,0.006 c 0,0.381 -0.444,0.709 -1.012,0.715 -0.583,0 -1.026,-0.325 -1.041,-0.707 0,-0.401 0.458,-0.715 1.026,-0.715 0.569,-10e-4 1.027,0.312 1.027,0.707 z m -3.315,-1.256 c 0,0.396 -0.457,0.715 -1.026,0.715 -0.555,0 -1.012,-0.311 -1.012,-0.715 0,-0.381 0.443,-0.707 1.012,-0.707 0.569,-0.008 1.026,0.319 1.026,0.707 z m -6.712,-7.155 c 0.555,0 1.026,0.312 1.026,0.707 0,0.396 -0.472,0.707 -1.026,0.715 -0.569,0 -1.026,-0.312 -1.026,-0.707 0,-0.396 0.457,-0.715 1.026,-0.715 z m -1.733,-0.625 c -0.569,0.008 -1.026,-0.318 -1.041,-0.707 0,-0.396 0.472,-0.709 1.026,-0.709 0.568,-0.006 1.026,0.312 1.026,0.701 0.015,0.397 -0.457,0.715 -1.011,0.715 z m 3.314,2.983 c 0.554,0 1.026,0.319 1.026,0.707 0,0.396 -0.458,0.713 -1.013,0.721 -0.568,0 -1.04,-0.318 -1.04,-0.707 10e-4,-0.395 0.459,-0.721 1.027,-0.721 z m 1.747,2.204 c 0.556,0 1.013,0.319 1.013,0.708 0,0.4 -0.443,0.715 -1.013,0.723 -0.568,0 -1.026,-0.322 -1.026,-0.715 0,-0.382 0.458,-0.707 1.026,-0.716 z m -6.892,-7.467 c 0,0.388 -0.443,0.708 -1.013,0.715 -0.567,0 -1.026,-0.313 -1.026,-0.708 0,-0.396 0.459,-0.715 1.026,-0.715 0.556,-0.005 1.013,0.313 1.013,0.708 z m 28.124,31.569 c -0.722,-0.092 -1.429,-0.18 -2.136,-0.293 0.735,-0.873 1.221,-2.086 1.207,-3.84 l -0.028,-11.685 c 0,0 -0.416,-4.618 1.858,-6.239 l 0.07,19.178 c 0,0.002 -0.153,1.417 -0.971,2.879 z m 6.573,0.403 c -0.042,0 -0.083,-0.007 -0.111,-0.007 0.458,-0.937 0.75,-2.114 0.805,-3.612 l 0.083,-19.408 1.596,-0.008 0.206,19.403 c 0.071,1.461 0.362,2.613 0.778,3.521 -1.111,0.062 -2.232,0.111 -3.357,0.111 z m 9.293,-0.798 C 73.821,117.43 73.78,116.257 73.78,116.257 L 73.71,97.244 c 2.274,1.762 1.914,6.068 1.914,6.068 l 0.041,11.684 c 0,1.447 0.332,2.537 0.858,3.354 -0.776,0.175 -1.565,0.313 -2.341,0.446 z m 8.597,-2.185 c -1.012,-0.943 -1.139,-1.795 -1.139,-1.795 L 81.584,99.505 c -0.013,-5.97 -2.537,-9.117 -4.991,-10.781 14.285,-1.471 21.135,-6.121 24.268,-13.32 5.478,0.132 9.361,-0.457 17.447,1.394 -4.091,18.632 -17.697,33.669 -35.529,39.813 z m 35.639,-40.263 c -8,-1.838 -11.843,-1.275 -17.348,-1.416 0.291,-0.726 0.555,-1.484 0.777,-2.259 5.532,-0.257 9.541,-1.157 17.223,-0.098 -0.181,1.277 -0.388,2.525 -0.652,3.773 z m -16.434,-4.155 c 1.041,-3.834 1.358,-8.235 1.332,-13.146 -0.014,-7.045 -2.691,-12.675 -6.989,-16.94 0.735,-2.427 1.72,-7.814 -1.054,-14.7 0,0 -4.854,-1.518 -15.81,5.874 C 75.164,32.22 70.588,31.713 66.013,31.72 60.964,31.741 55.874,32.4 51.131,33.724 39.774,26.028 34.782,27.63 34.782,27.63 31.551,35.819 33.59,41.86 34.2,43.363 c -3.798,4.161 -6.129,9.465 -6.115,15.954 0.028,4.896 0.596,9.292 1.969,13.104 C 24.355,72.241 18.945,71.647 10.972,72.879 10.597,70.309 10.404,67.68 10.404,64.997 10.389,34.849 34.797,10.4 64.889,10.4 c 30.329,0 54.722,24.449 54.722,54.597 0,2.413 -0.18,4.782 -0.486,7.112 -7.613,-1.059 -11.593,-0.164 -17.141,0.084 z"
         id="SVGID_2_" /></defs><clipPath
       id="SVGID_3_"><use
         id="use16"
         style="overflow:visible"
         x="0"
         y="0"
         width="130"
         height="130"
         xlink:href="#SVGID_2_" /></clipPath></defs><path
     d="m 68.8765,4.3535 c -35.654,0 -64.527,28.935 -64.527,64.644 0,35.724 28.873,64.649 64.527,64.649 35.903,0 64.774,-28.926 64.774,-64.649 0,-35.709 -28.871,-64.644 -64.774,-64.644 z m -53.849,73.001 c 8.071,-1.242 13.522,-0.639 19.207,-0.445 0.305,0.792 0.638,1.554 1.012,2.296 -5.561,0.2 -11.218,0.021 -19.483,1.94 -0.278,-1.256 -0.528,-2.508 -0.736,-3.791 z m 40.674,22.574 c -2.579,1.264 -10.789,4.327 -15.739,-4.145 0,0 -2.774,-5.042 -8.043,-5.417 0,0 -5.132,-0.062 -0.361,3.196 0,0 3.439,1.608 5.824,7.676 0,0 3.121,10.353 17.987,6.976 l 0.041,10.706 c 0,0 -0.111,1.357 -0.957,2.732 -19.096,-5.243 -34.003,-20.637 -38.58,-40.051 8.362,-1.947 14.104,-1.746 19.623,-1.941 3.855,7.136 11.399,11.719 24.823,13.111 -1.914,1.297 -3.841,3.481 -4.618,7.157 z m -1.289,2.427 c 0,0.401 -0.458,0.713 -1.012,0.721 -0.57,0 -1.026,-0.311 -1.026,-0.707 0,-0.389 0.457,-0.715 1.012,-0.715 0.568,-0.006 1.026,0.319 1.026,0.701 z m -3.342,0.577 c 0.013,0.381 -0.445,0.705 -1.012,0.705 -0.569,0 -1.026,-0.318 -1.026,-0.705 0,-0.396 0.457,-0.715 1.026,-0.715 0.553,0 1.012,0.31 1.012,0.715 z m -3.287,0.006 c 0,0.381 -0.444,0.709 -1.012,0.715 -0.583,0 -1.026,-0.325 -1.041,-0.707 0,-0.401 0.458,-0.715 1.026,-0.715 0.569,-10e-4 1.027,0.312 1.027,0.707 z m -3.315,-1.256 c 0,0.396 -0.457,0.715 -1.026,0.715 -0.555,0 -1.012,-0.311 -1.012,-0.715 0,-0.381 0.443,-0.707 1.012,-0.707 0.569,-0.008 1.026,0.319 1.026,0.707 z m -6.712,-7.155 c 0.555,0 1.026,0.312 1.026,0.707 0,0.396 -0.472,0.707 -1.026,0.715 -0.569,0 -1.026,-0.312 -1.026,-0.707 0,-0.396 0.457,-0.715 1.026,-0.715 z m -1.733,-0.625 c -0.569,0.008 -1.026,-0.318 -1.041,-0.707 0,-0.396 0.472,-0.709 1.026,-0.709 0.568,-0.006 1.026,0.312 1.026,0.701 0.015,0.397 -0.457,0.715 -1.011,0.715 z m 3.314,2.983 c 0.554,0 1.026,0.319 1.026,0.707 0,0.396 -0.458,0.713 -1.013,0.721 -0.568,0 -1.04,-0.318 -1.04,-0.707 0.001,-0.395 0.459,-0.721 1.027,-0.721 z m 1.747,2.204 c 0.556,0 1.013,0.319 1.013,0.708 0,0.4 -0.443,0.715 -1.013,0.723 -0.568,0 -1.026,-0.322 -1.026,-0.715 0,-0.382 0.458,-0.707 1.026,-0.716 z m -6.892,-7.467 c 0,0.388 -0.443,0.708 -1.013,0.715 -0.567,0 -1.026,-0.313 -1.026,-0.708 0,-0.396 0.459,-0.715 1.026,-0.715 0.556,-0.005 1.013,0.313 1.013,0.708 z m 28.124,31.569 c -0.722,-0.092 -1.429,-0.18 -2.136,-0.293 0.735,-0.873 1.221,-2.086 1.207,-3.84 l -0.028,-11.685 c 0,0 -0.416,-4.618 1.858,-6.239 l 0.07,19.178 c 0,0.002 -0.153,1.417 -0.971,2.879 z m 6.573,0.403 c -0.042,0 -0.083,-0.007 -0.111,-0.007 0.458,-0.937 0.75,-2.114 0.805,-3.612 l 0.083,-19.408 1.596,-0.008 0.206,19.403 c 0.071,1.461 0.362,2.613 0.778,3.521 -1.111,0.062 -2.232,0.111 -3.357,0.111 z m 9.293,-0.798 c -0.361,-1.366 -0.402,-2.539 -0.402,-2.539 l -0.07,-19.013 c 2.274,1.762 1.914,6.068 1.914,6.068 l 0.041,11.684 c 0,1.447 0.332,2.537 0.858,3.354 -0.776,0.175 -1.565,0.313 -2.341,0.446 z m 8.597,-2.185 c -1.012,-0.943 -1.139,-1.795 -1.139,-1.795 l -0.056,-15.311 c -0.013,-5.97 -2.537,-9.117 -4.991,-10.781 14.285,-1.471 21.135,-6.121 24.268,-13.32 5.478,0.132 9.361,-0.457 17.447,1.394 -4.091,18.632 -17.697,33.669 -35.529,39.813 z m 35.639,-40.263 c -8,-1.838 -11.843,-1.275 -17.348,-1.416 0.291,-0.726 0.555,-1.484 0.777,-2.259 5.532,-0.257 9.541,-1.157 17.223,-0.098 -0.181,1.277 -0.388,2.525 -0.652,3.773 z m -16.434,-4.155 c 1.041,-3.834 1.358,-8.235 1.332,-13.146 -0.014,-7.045 -2.691,-12.675 -6.989,-16.94 0.735,-2.427 1.72,-7.814 -1.054,-14.7 0,0 -4.854,-1.518 -15.81,5.874 -4.299,-1.061 -8.875,-1.568 -13.45,-1.561 -5.049,0.021 -10.139,0.68 -14.882,2.004 -11.357,-7.696 -16.349,-6.094 -16.349,-6.094 -3.231,8.189 -1.192,14.23 -0.582,15.733 -3.798,4.161 -6.129,9.465 -6.115,15.954 0.028,4.896 0.596,9.292 1.969,13.104 -5.699,-0.18 -11.109,-0.774 -19.082,0.458 -0.375,-2.57 -0.568,-5.199 -0.568,-7.882 -0.015,-30.148 24.393,-54.597 54.485,-54.597 30.329,0 54.722,24.449 54.722,54.597 0,2.413 -0.18,4.782 -0.486,7.112 -7.613,-1.059 -11.593,-0.164 -17.141,0.084 z"
     id="path3"
     style="fill:#e6e6e7" /><g
     transform="translate(4.0005,4.0005)"
     id="g5"><path
       d="m 64.876,1.543 c -35.654,0 -64.527,28.935 -64.527,64.643 0,35.724 28.873,64.652 64.527,64.652 35.903,0 64.774,-28.929 64.774,-64.652 0,-35.708 -28.871,-64.643 -64.774,-64.643 z M 11.027,74.542 c 8.071,-1.239 13.522,-0.638 19.207,-0.442 0.305,0.789 0.638,1.551 1.012,2.295 -5.561,0.201 -11.218,0.021 -19.483,1.939 -0.278,-1.255 -0.528,-2.509 -0.736,-3.792 z m 41.504,22.052 c -2.579,1.263 -11.619,4.852 -16.569,-3.621 0,0 -2.774,-5.041 -8.043,-5.416 0,0 -5.132,-0.062 -0.361,3.196 0,0 3.439,1.61 5.824,7.677 0,0 3.121,10.352 17.987,6.975 l 0.039,10.014 c 0,0 -0.209,2.051 -1.055,3.423 -19.096,-5.239 -33.903,-20.634 -38.48,-40.049 8.362,-1.948 14.104,-1.747 19.623,-1.942 3.855,7.139 12.33,10.569 25.754,11.963 -1.914,1.294 -3.942,4.105 -4.719,7.78 z m -2.119,2.951 c 0,0.402 -0.458,0.713 -1.012,0.721 -0.57,0 -1.026,-0.312 -1.026,-0.705 0,-0.391 0.457,-0.715 1.012,-0.715 0.568,-0.008 1.026,0.317 1.026,0.699 z m -3.342,0.577 c 0.013,0.381 -0.445,0.706 -1.012,0.706 -0.569,0 -1.026,-0.316 -1.026,-0.706 0,-0.396 0.457,-0.716 1.026,-0.716 0.553,0 1.012,0.313 1.012,0.716 z m -3.287,0.007 c 0,0.381 -0.444,0.706 -1.012,0.713 -0.583,0 -1.026,-0.326 -1.041,-0.707 0,-0.402 0.458,-0.715 1.026,-0.715 0.569,0 1.027,0.312 1.027,0.709 z m -3.315,-1.255 c 0,0.394 -0.457,0.713 -1.026,0.713 -0.555,0 -1.012,-0.312 -1.012,-0.713 0,-0.384 0.443,-0.709 1.012,-0.709 0.569,-0.006 1.026,0.319 1.026,0.709 z m -6.712,-7.155 c 0.555,0 1.026,0.311 1.026,0.704 0,0.396 -0.472,0.709 -1.026,0.716 -0.683,0 -1.026,-0.426 -1.026,-0.707 0,-0.395 0.457,-0.713 1.026,-0.713 z m -1.733,-0.625 c -0.677,0.007 -1.03,-0.438 -1.041,-0.709 0,-0.396 0.472,-0.707 1.026,-0.707 0.568,-0.006 1.026,0.311 1.026,0.7 0.015,0.395 -0.457,0.716 -1.011,0.716 z m 3.314,2.98 c 0.554,0 1.026,0.318 1.026,0.707 0,0.396 -0.458,0.716 -1.013,0.721 -0.568,0 -1.04,-0.316 -1.04,-0.706 10e-4,-0.396 0.459,-0.722 1.027,-0.722 z m 1.747,2.207 c 0.556,0 1.013,0.316 1.013,0.705 0,0.404 -0.443,0.716 -1.013,0.723 -0.568,0 -1.026,-0.318 -1.026,-0.715 0,-0.381 0.458,-0.708 1.026,-0.713 z m -6.892,-7.47 c 0,0.275 -0.556,0.71 -1.013,0.715 -0.567,0 -1.026,-0.312 -1.026,-0.707 0,-0.395 0.459,-0.713 1.026,-0.713 0.556,-0.008 1.013,0.311 1.013,0.705 z m 27.423,31.571 c -0.722,-0.09 -1.729,-0.18 -2.436,-0.293 0.735,-0.872 2.222,-2.086 2.208,-3.84 l -0.028,-11.685 c 0,0 -0.416,-4.617 1.858,-6.238 l -0.203,19.208 c 0,-0.001 -0.581,1.384 -1.399,2.848 z m 7.274,0.401 c -0.042,0 -0.784,-0.006 -0.812,-0.006 0.458,-0.938 1.45,-2.116 1.506,-3.613 l 0.083,-19.409 1.596,-0.005 0.206,19.4 c 0.071,1.461 0.96,2.615 1.376,3.522 -1.112,0.062 -2.83,0.111 -3.955,0.111 z m 9.591,-0.797 c -0.361,-1.366 -0.602,-2.537 -0.602,-2.537 L 73.71,98.436 c 2.274,1.76 1.914,6.066 1.914,6.066 l 0.041,11.684 c 0,1.448 1.229,2.539 1.755,3.356 -0.776,0.174 -2.163,0.312 -2.94,0.444 z m 8.812,-2.027 c -1.012,-0.943 -1.654,-2.833 -1.654,-2.833 L 81.585,100.695 C 81.572,94.724 77.954,90.476 75.5,88.812 c 14.285,-1.47 22.229,-5.021 25.361,-12.217 5.478,0.131 9.361,-0.459 17.447,1.393 -4.091,18.632 -17.184,33.827 -35.016,39.971 z m 35.126,-40.422 c -8,-1.837 -11.843,-1.275 -17.348,-1.413 0.291,-0.728 0.555,-1.483 0.777,-2.261 5.532,-0.258 9.541,-1.158 17.223,-0.098 -0.181,1.276 -0.388,2.524 -0.652,3.772 z m -16.434,-4.152 c 1.041,-3.836 1.358,-8.238 1.332,-13.147 -0.014,-7.044 -4.086,-13.375 -8.384,-17.641 0.735,-2.426 2.317,-6.913 -0.456,-13.798 0,0 -4.057,-1.718 -15.013,5.673 -4.299,-1.06 -8.875,-1.567 -13.45,-1.56 -5.049,0.021 -10.139,0.68 -14.882,2.004 C 39.774,27.219 35.483,28.821 35.483,28.821 32.251,37.01 34.79,42.349 35.4,43.854 31.602,48.015 28.069,54.02 28.084,60.51 28.112,65.405 28.68,69.801 30.053,73.614 24.354,73.434 18.944,72.838 10.971,74.073 10.596,71.501 10.403,68.872 10.403,66.188 10.389,36.039 34.797,11.59 64.889,11.59 c 30.329,0 54.722,24.449 54.722,54.596 0,2.414 -0.18,4.785 -0.486,7.115 -7.613,-1.061 -11.593,-0.166 -17.141,0.084 z"
       clip-path="url(#SVGID_3_)"
       id="path18"
       style="fill:#ffffff;fill-opacity:1" /></g></svg>